<?xml version="1.0" encoding="UTF-8"?>
<svg id="B.Cu.Path" xmlns="http://www.w3.org/2000/svg" width="232.38mm" height="274.21mm" viewBox="0 0 658.72 777.28">
  <defs>
    <style>
      .cls-1 {
        fill: none;
        stroke: #231f20;
        stroke-miterlimit: 10;
        stroke-width: .25px;
      }
    </style>
  </defs>
  <polyline class="cls-1" points="516.49 64.29 487.21 291.03 483.5 340.3 429.52 657.25 429.46 657.28 296.22 724.77 296.22 741.28"/>
  <polyline class="cls-1" points="620.64 176.11 570.67 379.48 515.97 662.71 515.9 662.73 302.26 731.32 302.24 741.28"/>
  <polyline class="cls-1" points="604.63 173.99 550.33 370.34 488.36 658.28 488.29 658.31 300.25 729.19 300.23 741.45"/>
  <polyline class="cls-1" points="500.43 64.2 469.19 284.08 454.55 327.33 445.51 412.7 400.09 656.73 400.05 656.76 294.2 722.55 294.21 741.28"/>
  <polyline class="cls-1" points="423.46 301.39 370.67 656.2 370.64 656.23 292.19 720.34 292.2 741.28"/>
  <polyline class="cls-1" points="368.53 26.43 372.31 316.7 310.35 656.3 288.15 715.88 288.19 741.28"/>
  <polyline class="cls-1" points="330.48 296.09 334.85 405.24 282.41 655.63 286.14 728.22 286.18 741.28"/>
  <polyline class="cls-1" points="386.33 27.09 398.96 312.15 343.01 652.85 342.99 652.88 290.17 718.11 290.19 741.28"/>
  <polyline class="cls-1" points="517.31 355.5 458.31 656.68 458.25 656.71 298.23 726.98 298.22 741.28"/>
  <polyline class="cls-1" points="284.17 741.28 284.12 728.29 242.03 656.76 244.26 622.41 302.25 397.3 302.25 397.28 293.62 313.19 265.4 213.37 252.81 81.05"/>
  <polyline class="cls-1" points="282.16 741.27 282.11 728.28 194.28 609.01 203.3 585.72 272.2 399.78 272.21 399.76 272.14 321 242.03 212.53 233.8 82.67"/>
  <path class="cls-1" d="M280.15,741.27l-.06-13.17-148.94-177.29-25.35-63.63c-2.09-5.25-.58-11.14,3.84-15l65.47-37.26"/>
  <path class="cls-1" d="M278.15,741.27l-.07-13.12-149.97-178.1-38.81-99.38c-2.37-6.06.29-12.91,6.32-16.29l54.5-30.6"/>
  <path class="cls-1" d="M276.14,741.27l-.08-13.12-149.2-178.25-42.47-107.55-23.56-36.3c-2.29-3.53-2.99-7.67-1.98-11.66,1.08-4.26,3.96-7.85,8.1-10.1l43.15-23.41"/>
  <path class="cls-1" d="M274.13,741.27l-.08-13-148.27-178.36-42.21-106.88-41.55-59.98c-1.94-2.8-2.58-6.12-1.79-9.35.83-3.4,3.2-6.35,6.51-8.11l45.77-24.31"/>
  <path class="cls-1" d="M272.12,741.17l-.09-12.94-147.49-178.46-41.86-106.23-57.59-79.19c-1.91-2.62-2.59-5.76-1.91-8.84.7-3.22,2.88-6.06,5.96-7.79l42.13-23.62"/>
</svg>