<?xml version="1.0" encoding="UTF-8"?>
<svg id="outline" xmlns="http://www.w3.org/2000/svg" width="232.38mm" height="274.21mm" viewBox="0 0 658.72 777.28">
  <defs>
    <style>
      .cls-1 {
        fill: none;
        stroke: #231f20;
        stroke-miterlimit: 10;
        stroke-width: .25px;
      }
    </style>
  </defs>
  <path class="cls-1" d="M613.11,164.43c-16.95-4.51-36.4,3.66-37.94,17.18,0,0-44.87,150.79-44.87,150.79-3.49-1.84-10.15-11.5-12.46-14.68,9.03-86.08,14.74-134.59,18.16-163.62,2.56-44.84,21.43-89.93-26.14-100.42-28.57-3.05-37.43,18.61-37.52,18.83-11.25,74.75-30.68,196.91-36.92,208.64-36.38-.12,2.01-251.17-38.4-260.72-24.75-11.58-47.55-1.5-54.99,15.84-1.35,4.98-4.67,226.94-6.86,242.36-27.26-.38-26.8-61.34-40.82-110.83-6.62-30.67-11.74-54.83-15.05-66.4-6.79-27.26-11.3-27.48-35.54-30.4-22.93-4.96-33.1,25.18-32.49,33.59.97,65.23,17.98,198.77,29.64,263.42-1.98-.9-34.25,94.17-57.05,64.4h0c-21-24.68-88.7-142.91-149.04-123.55-26.68,9.75-25.93,37.27-25.58,39.66,3.2,23.01,55.82,83.2,67.27,106.28,3.26,7.52,33.58,95.02,34.46,96.6,22.95,41.37,165.36,142.98,149.36,223.67h300.93c-1.1-2.9-12.49-33.83-10.76-53.33,2.32-17.22,52.82-198.47,53.4-200.59-3.28-79.21,21.65-243.53,38.1-321.61.05-.29,5.63-28.98-28.89-35.09Z"/>
</svg>