<?xml version="1.0" encoding="UTF-8"?>
<svg id="F.Cu.Path" xmlns="http://www.w3.org/2000/svg" width="232.38mm" height="274.21mm" viewBox="0 0 658.72 777.28">
  <defs>
    <style>
      .cls-1 {
        fill: none;
        stroke: #231f20;
        stroke-miterlimit: 10;
        stroke-width: .25px;
      }
    </style>
  </defs>
  <path class="cls-1" d="M539.02,738.68l.05-11.73,8.14-42.12h0l41.64-185.76s.02-.07.02-.11l9.6-116.06,14.61-88.74c.57-3.49-1.95-6.82-5.74-7.6l-1.96-.4-37.91-9.44-2.88-.74c-1.54-.4-3.16-.23-4.56.48-1.4.71-2.41,1.87-2.84,3.27l-19.88,64.03-.29.78c-.41,1.11-1.23,2.04-2.31,2.61-1.03.49-2.28.77-3.69.84-2.21.11-4.56-.24-7.62-1.14-2.41-.72-4.78-1.72-7.06-2.97-2.38-1.35-4.47-2.62-5.91-4.48-1.31-1.68-2.24-3.81-2.83-6.49-.43-2.01-.62-4.19-.63-7.05,0-4.3,10.87-103.47,13.65-127.23.4-3.39-1.95-6.47-5.62-7.35l-40.76-7.41-4.44-.5c-2.28-.26-4.3,1.15-4.65,3.19l-.56,3.31c-2.05,12.08-6.32,37.23-8.43,46.82-9.34,42.43-11.94,51.93-12.47,52.42-1.62,1.28-3.57,2.27-5.65,2.86-4.08,1.16-8.67.69-12.61-1.29-1.86-.89-3.69-2-5.44-3.3-1.88-1.38-3.37-2.76-4.56-4.24-1.28-1.54-2.26-3.31-2.9-5.27-.47-1.43-2.3-63.59-3.13-94.99-.12-4.66-.57-15.61-.86-22.86l-.04-1.08c-.12-2.96-2.78-5.28-6.05-5.28h-1.96l-45.41-1.19c-3.26,0-5.96,2.42-6.02,5.37-.15,8.15-.44,24.94-.76,43.39-.58,33.41-1.29,74.99-1.37,75.64-.08.35-.14.71-.2,1.07-.13.73-.26,1.49-.55,2.22-.59,2.12-1.77,4.13-3.41,5.82-1.56,1.61-3.63,2.88-6.01,3.69-2.1.72-4.53,1.15-7.21,1.25-5.44.21-10.37-.75-14.23-2.79-2.17-1.15-4.05-2.68-5.44-4.42-1.17-1.45-15.72-67.19-21.19-91.93l-.89-4.04c-.74-3.33-4.32-5.51-8.01-4.89l-53.95,9.2"/>
  <path class="cls-1" d="M541.05,738.68l.04-11.72,6.88-41.94h0l42.42-186.27,9.33-113.29,16.85-105.34c.48-3.02-1.47-5.93-4.64-6.94l-4.07-1.29-35.07-8.91-5.21-1.2c-3-.69-6.12.94-6.96,3.66l-23.96,78.12-.41.75c-.36.94-1.03,1.69-1.93,2.17-.93.44-2.05.69-3.34.75-2.08.1-4.4-.24-7.33-1.1-2.35-.7-4.67-1.68-6.89-2.9-2.22-1.26-4.33-2.54-5.67-4.28-1.24-1.6-2.12-3.62-2.69-6.2-.41-1.94-.61-4.13-.62-6.91,0-4.27,13.6-128.12,16.1-149.1.22-1.85-1.11-3.58-3.09-4.04l-3.33-.77-40.33-7.77-4.3-.46c-2.62-.28-4.96,1.34-5.35,3.69l-.81,4.83c-2.96,17.66-9.11,54.42-11.23,64.15-9.22,42.21-11.77,51.65-12.28,52.14-1.53,1.21-3.39,2.15-5.36,2.71-3.87,1.1-8.24.65-11.98-1.24-1.81-.87-3.6-1.95-5.31-3.22-1.82-1.33-3.26-2.67-4.42-4.1-1.25-1.51-2.19-3.24-2.8-5.13-.44-1.35-2.25-63.48-3.07-94.87-.13-4.71-1.18-29.99-1.8-45.09l-.23-5.5c-.17-4.04-3.79-7.2-8.25-7.2l-43.97-.94h-.84c-3.52,0-6.42,2.6-6.48,5.79-.18,9.8-.54,31.66-.93,54.8-.68,40.78-1.53,91.54-1.61,92.23-.08.35-.14.7-.2,1.06-.12.71-.25,1.44-.53,2.12-.56,2.01-1.68,3.93-3.24,5.54-2.73,2.85-7.22,4.52-12.65,4.7-5.29.21-10.06-.72-13.78-2.69-2.1-1.12-3.85-2.54-5.19-4.21-1.14-1.51-18.14-78.73-24.53-107.8l-1.48-6.75c-.65-2.96-3.74-4.88-7.03-4.4l-2.83.42-50.74,9.07"/>
  <path class="cls-1" d="M543.07,738.68l.02-11.72,5.62-41.74h0l43.49-186.63s.02-.07.02-.11l8.49-112.06,22.62-139.02c.21-1.31-.15-2.62-1.03-3.68-.88-1.06-2.16-1.74-3.59-1.92l-40.78-9.7-2.61-.28c-2.72-.3-5.21,1.22-5.94,3.61l-33.57,108.03-.36.64c-.32.78-.81,1.34-1.55,1.74-.81.38-1.84.61-2.98.66-1.95.1-4.25-.24-7.03-1.06-2.29-.68-4.55-1.64-6.73-2.83-.87-.49-2.01-1.14-3.08-1.91-.51-.32-.9-.67-1.28-1.02-.08-.07-.16-.14-.23-.21-.12-.1-.24-.21-.34-.31l-.49-.63c-1.16-1.48-2.02-3.47-2.56-5.91-.4-1.89-.59-4.04-.6-6.76,0-2.71,5.6-53.57,16.64-151.17.03-.27,3.27-27.64,4.56-38.37.3-2.51-1.62-4.76-4.38-5.11l-2.27-.29-41.26-6.96-3.69-.48c-2.38-.31-4.59,1.19-4.95,3.33-.36,2.18-.86,5.23-1.47,8.92-4.46,27.06-14.91,90.44-17.06,100.36-9.11,41.98-11.6,51.39-12.09,51.88-1.45,1.14-3.2,2.03-5.06,2.56-3.66,1.03-7.8.6-11.35-1.19-1.75-.84-3.54-1.92-5.18-3.14-1.76-1.29-3.16-2.59-4.27-3.97-1.18-1.43-2.08-3.05-2.65-4.82-.42-1.3-2.23-63.36-3.06-94.74-.13-4.82-1.84-44.98-2.86-68.98l-.52-12.14c-.13-3.2-3.05-5.72-6.56-5.72-.08,0-.16,0-.24,0l-45.01,1.35h-1.45c-3.1,0-5.64,2.21-5.77,5.02-.21,4.34-.49,11.58-.66,21.45-.21,12.3-.47,27.57-.74,43.65-.82,48.4-1.83,108.62-1.91,109.34-.08.34-.14.69-.2,1.04-.12.68-.23,1.37-.5,2.02-.53,1.91-1.59,3.73-3.06,5.25-2.58,2.7-6.87,4.28-12.07,4.45-2.67.08-4.95-.06-6.96-.44-2.45-.47-4.59-1.19-6.38-2.15-2-1.07-3.67-2.41-4.94-4-1.12-1.64-22-97.35-29.86-133.38l-2.29-10.5c-.66-3.02-3.91-5-7.25-4.4l-49.67,11.32"/>
  <path class="cls-1" d="M545.1,738.68v-11.72s4.37-41.54,4.37-41.54h0l44.36-187.06,7.78-111.86,26.12-158.63c.5-3.05-1.59-5.96-4.86-6.78l-1.17-.29-37.49-6.93-6.17-1.34c-1.71-.38-3.44.54-3.92,2.1l-39.1,128.58-.34.7c-.27.61-.61.99-1.16,1.31-.69.32-1.62.52-2.63.56-1.84.11-4.05-.24-6.73-1.03-2.24-.67-4.45-1.6-6.57-2.77-.85-.47-1.96-1.11-2.99-1.85-.08-.06-.17-.12-.26-.18-.15-.1-.31-.21-.42-.3l-.54-.49c-.07-.07-.15-.13-.22-.19-.11-.09-.22-.18-.3-.27l-.45-.59c-1.09-1.4-1.91-3.29-2.42-5.63-.39-1.84-.58-3.95-.59-6.62,0-2.7,6.02-56.16,11.34-103.32,1.97-17.51,3.86-34.21,5.31-47.24l6.7-57.47c.34-2.87-1.77-5.45-4.89-6.01l-43.05-7.72-4.6-.55c-2.22-.26-4.26,1.14-4.58,3.13-.38,2.33-.94,5.76-1.64,10-5.35,32.66-17.88,109.14-20.06,119.27-8.97,41.65-11.41,50.98-11.87,51.48-1.36,1.07-3.01,1.91-4.77,2.41-3.45.97-7.36.56-10.74-1.14-.54-.22-1.12-.56-1.67-.88-.31-.18-.62-.36-.91-.52-.25-.16-.5-.33-.75-.49-.58-.37-1.17-.75-1.71-1.17-1.69-1.24-3.07-2.53-4.13-3.83-1.13-1.38-1.98-2.93-2.53-4.59-.41-1.25-2.17-62.22-3.03-94.59-.13-4.76-2.33-58.59-3.65-90.75-.38-9.27-.69-16.87-.87-21.22-.09-2.32-2.17-4.14-4.74-4.14l-7.84.28-36.13,1.57-3.34.34c-3.35.34-5.9,2.81-6.06,5.86-.42,8.07-1.83,35.46-2.06,49.28-.22,12.63-.48,28.37-.76,44.9-.85,50.21-1.81,107.13-1.88,107.83-.08.34-.14.68-.2,1.03-.11.65-.22,1.31-.48,1.92-.51,1.83-1.48,3.5-2.89,4.97-2.43,2.54-6.51,4.04-11.5,4.2-2.59.08-4.85-.07-6.76-.43-2.36-.45-4.42-1.15-6.14-2.07-1.88-.98-3.46-2.27-4.71-3.82-.76-1.21-12.77-55.67-35.69-161.88l-.77-3.58c-.43-1.99-1.69-3.69-3.55-4.8-1.87-1.11-4.1-1.49-6.29-1.05l-44.52,10.24"/>
  <path class="cls-1" d="M547.13,738.59v-11.68s3.1-41.29,3.1-41.29h0l46.02-187.01s.02-.09.02-.13l6.79-111.87,30.87-191.27c.43-2.65-1.6-5.15-4.51-5.58l-.99-.14-34.16-5.77-5.37-.76c-3.46-.49-6.76,1.45-7.68,4.51l-46.96,155.35-.35.72c-.2.4-.36.62-.78.88-.58.26-1.41.43-2.27.47-1.72.1-3.88-.23-6.43-.99-2.18-.65-4.33-1.56-6.4-2.7-.83-.46-1.91-1.09-2.91-1.8-.08-.06-.17-.12-.27-.18-.15-.1-.29-.19-.39-.28l-.48-.44c-.07-.06-.14-.12-.21-.19-.09-.08-.19-.16-.26-.23l-.41-.54c-1.03-1.31-1.8-3.11-2.28-5.34-.38-1.8-.56-3.86-.57-6.48,0-3.56,10.44-96.31,16.66-151.29.07-.61,7.11-60.69,7.25-61.54l.15-15.29c.03-2.64-1.94-4.92-4.77-5.52l-1.55-.33-40.16-7.65-3.45-.69c-3.24-.3-6.12,1.72-6.6,4.63l-1.24,7.64c-5.75,35.38-21.04,129.37-23.25,139.71-8.87,41.53-11.27,50.85-11.71,51.34-1.28,1.01-2.82,1.79-4.47,2.26-3.29.92-6.88.53-10.11-1.08-.51-.2-1.07-.53-1.62-.85-.31-.18-.61-.36-.9-.51-.25-.16-.49-.32-.74-.48-.56-.36-1.14-.73-1.65-1.13-1.63-1.2-2.98-2.44-3.99-3.7-1.08-1.33-1.89-2.8-2.41-4.36-.39-1.22-2.14-62.07-2.99-94.38-.13-4.85-2.38-59.73-3.72-92.53-.55-13.49-.95-23.24-.96-23.43l-2.64-22.42c-.32-2.69-2.8-4.71-5.78-4.71h-40.93c-4.51,0-8.28,3.2-8.57,7.28l-1.57,21.81c-.01.16-1.86,38-2.15,55.15-.22,13.11-.5,29.57-.79,46.79-.83,49.32-1.77,105.22-1.84,105.9-.08.33-.14.67-.19,1-.11.62-.21,1.26-.46,1.84-.47,1.72-1.39,3.3-2.72,4.68-2.27,2.39-6.15,3.8-10.93,3.96-2.52.07-4.72-.06-6.56-.41-2.27-.44-4.25-1.1-5.89-1.98-1.78-.93-3.27-2.14-4.43-3.59-1.09-1.78-26.77-121.11-35.21-160.33-1.65-7.69-2.65-12.33-2.73-12.65l-4.65-14.44c-1.31-4.07-5.89-6.45-10.43-5.4l-40.19,9.29"/>
  <path class="cls-1" d="M534.96,738.68l.07-11.73,10.75-42.51h0l40.35-185.46s.01-.06.02-.1l9.34-114.57,8.92-53.27c.65-3.9-1.82-7.74-5.88-9.14l-2.14-.74-38.98-10.8-1.71-.4c-2.92-.69-5.91.84-6.78,3.47l-10.13,30.73-.12.79c-.5,1.44-1.65,2.74-3.07,3.47-1.27.61-2.71.95-4.4,1.03-3.11.14-5.89-.53-8.22-1.21-2.52-.76-5.01-1.8-7.38-3.11-.95-.53-2.19-1.25-3.38-2.09-.56-.34-1.12-.84-1.6-1.28-.09-.08-.18-.16-.27-.24-.17-.15-.35-.31-.5-.46l-.64-.82c-1.47-1.89-2.45-4.13-3.1-7.07-.45-2.11-.65-4.37-.66-7.33,0-4.43,5.57-54.72,7.24-68.14.23-1.83-.95-3.54-2.88-4.16l-1.75-.56-44.2-10.82-1.4-.34c-1.19-.29-2.41-.13-3.45.45-1.04.58-1.75,1.49-2.01,2.57-5.07,21.27-10.92,44.35-12.13,45.34-1.81,1.43-3.91,2.5-6.24,3.16-4.43,1.28-9.61.75-13.85-1.4-1.97-.95-3.84-2.09-5.7-3.46-1.98-1.46-3.57-2.93-4.84-4.51-1.4-1.72-2.49-3.7-3.16-5.72-.51-1.52-1.4-30.87-1.85-49.01-.07-2.88-2.62-5.14-5.81-5.14l-43.66-.69h-3.05c-3.93.02-7.18,2.92-7.24,6.49-.06,3.75-.14,8.83-.23,14.27-.22,14.35-.5,32.2-.59,32.86-.08.37-.14.74-.21,1.11-.14.79-.28,1.61-.6,2.4-.65,2.33-1.95,4.54-3.76,6.4-1.73,1.79-4.03,3.2-6.65,4.09-2.3.79-4.82,1.23-7.72,1.35-5.76.23-10.99-.8-15.12-2.99-2.36-1.26-4.42-2.92-5.94-4.83-.89-1.1-5.18-18.28-12.75-51.08-.73-3.16-4.16-5.19-7.64-4.54l-55.22,13.85"/>
  <path class="cls-1" d="M518.75,738.68l.18-11.72,20.72-44.09h0l13.28-78.49c.24-1.02-.08-2.16-.94-3.29-1.55-2.04-4.65-3.84-7.21-4.18l-371.47-50.44-54.84-53.53-29.94-75.06-24.41-23.82-40.29-61.85"/>
  <path class="cls-1" d="M522.8,738.6l.15-11.72,18.2-43.61h0l36.67-181.7c.74-2.72-.89-5.16-4.48-6.71l-5.21-1.7-2.39-.35-328.47-40.33c-1.8-.22-3.62.17-5.11,1.1l-36.01,22.39c-1.95,1.21-4.42,1.44-6.6.61l-37.39-14.22c-1.55-.59-2.82-1.67-3.56-3.05l-29.75-55.41c-.2-.38-.44-.74-.72-1.07l-20.81-25.22c-.1-.12-.2-.23-.3-.34l-56.19-58.74"/>
  <path class="cls-1" d="M526.86,738.68l.13-11.72,15.68-43.3h0l38.24-184.33,4.46-64.31c.18-2.67-.81-5.24-2.77-7.24-1.96-1.99-4.65-3.17-7.59-3.32l-160.45-58.12h0l-166.01,8.41.22-.36"/>
  <path class="cls-1" d="M536.99,738.68l.06-11.73,9.39-42.32h0l41.34-185.56s.02-.07.02-.11l8.95-116.41,12.96-74.98c.53-3.05-1.65-6-4.96-6.72l-1.85-.4-40.77-10.01-.97-.24c-3.03-.75-6.21.87-7.1,3.6l-16.11,50.12-.17.8c-.46,1.28-1.44,2.39-2.69,3.04-1.16.55-2.48.86-4.05.93-2.96.15-5.79-.55-7.92-1.17-2.46-.74-4.89-1.76-7.22-3.04-.93-.52-2.14-1.22-3.3-2.05-.5-.31-.97-.71-1.52-1.21-.08-.08-.16-.15-.25-.22-.16-.15-.33-.29-.47-.44l-.61-.77c-1.38-1.77-2.35-3.99-2.97-6.78-.44-2.06-.64-4.28-.65-7.19,0-4.31,9.35-90.16,11.8-110.68.24-2.02-1.29-3.89-3.49-4.26l-43.98-7.56-1.75-.25c-2.96-.42-5.74,1.42-6.21,4.09-1.06,6.08-3.54,20.3-5.64,29.76-7.59,34.25-11.86,51.98-12.66,52.69-1.7,1.34-3.76,2.38-5.95,3.01-4.22,1.21-9.17.71-13.23-1.35-1.93-.93-3.75-2.03-5.57-3.38-1.93-1.41-3.46-2.84-4.7-4.38-1.33-1.6-2.35-3.44-3.02-5.5-.55-1.67-2.52-69.12-3.05-90.24-.07-2.89-2.53-5.2-5.71-5.37l-1.11-.06-47.7-1.44h-.31c-2.47.01-4.43,1.77-4.48,4-.12,6.17-.35,19.37-.59,33.34-.45,25.85-1,58.03-1.08,58.66-.08.36-.14.73-.21,1.1-.13.76-.27,1.55-.57,2.3-.62,2.22-1.86,4.33-3.59,6.11-1.64,1.69-3.83,3.04-6.33,3.89-2.22.76-4.66,1.19-7.46,1.3-5.61.23-10.68-.78-14.67-2.89-2.27-1.21-4.24-2.8-5.69-4.62-1.24-1.53-13.94-58.61-18.11-77.37l-.56-2.51c-.7-3.15-3.98-5.17-7.47-4.62l-55.72,11.78"/>
  <path class="cls-1" d="M532.94,738.59l.09-11.73,11.91-42.62h0l39.75-185.09s.01-.06.02-.1l9.47-114.69,6.73-40.98c.15-1.88-1.97-3.77-4.01-4.92l-.67-.38s-.05-.03-.09-.04l-41.88-15.84-1.09-.38c-1.38-.48-2.87-.42-4.2.17-1.33.59-2.3,1.61-2.74,2.89l-6.64,19.32-.23.96c-.55,1.6-1.87,3.1-3.45,3.91-1.38.66-2.94,1.03-4.76,1.12-3.22.15-6.11-.55-8.52-1.25-2.57-.77-5.11-1.84-7.55-3.18-1.43-.79-2.49-1.45-3.45-2.13-.1-.07-.2-.14-.3-.21-.18-.12-.35-.24-.53-.39l-.86-.75c-.09-.08-.18-.16-.27-.24-.19-.17-.39-.35-.55-.51l-.68-.86c-1.53-1.97-2.56-4.31-3.24-7.36-.59-2.77-.67-5.45-.67-7.47,0-4.55,4.05-41.92,5.35-52.29.2-1.56-.87-3.04-2.52-3.5l-1.17-.33-44.66-11.53-1.67-.26c-2.61-.42-5.13,1.1-5.7,3.46-2.7,11.1-7.39,28.16-8.89,29.49-1.94,1.72-4.87,2.77-6.44,3.24-4.52,1.35-10.23.76-14.54-1.51-2.05-.99-3.9-2.11-5.83-3.53-2.04-1.5-3.67-3.02-4.99-4.65-1.46-1.79-2.59-3.85-3.28-5.95-.6-1.77-1.32-25.29-1.55-34.2-.06-2.32-2.11-4.13-4.67-4.13l-46.08.1-1.03-.04c-1.79-.07-3.54.5-4.86,1.63-1.32,1.13-2.06,2.65-2.09,4.3-.04,2.34-.08,5.17-.13,8.15-.15,9.88-.34,22.18-.43,22.86-.08.37-.14.75-.21,1.12-.14.82-.29,1.67-.62,2.5-.68,2.4-2.07,4.77-3.93,6.68-1.82,1.87-4.23,3.36-6.97,4.29-2.38.82-4.99,1.27-7.97,1.39-5.91.23-11.3-.83-15.56-3.09-2.46-1.31-4.6-3.05-6.19-5.03-.93-1.15-4.11-12.62-8.94-32.3-.34-1.4-1.28-2.57-2.63-3.31-1.36-.74-2.95-.93-4.48-.55l-58.03,16.49"/>
  <path class="cls-1" d="M530.91,738.68l.1-11.82,13.17-42.82h0l39.03-184.76s.01-.06.02-.1l10-115.81,4.05-24.72c.11-1.36-1.66-2.36-3.23-3.24-.57-.32-1.11-.62-1.5-.92l-.14-.1c-.05-.04-.11-.07-.16-.09l-42.39-16.05v-.02s-.35-.09-.35-.09v.02s-2.4-.36-2.4-.36c-2.61-.31-4.64.78-5.42,2.92l-1.34,3.69-.21.95c-.6,1.78-2.07,3.45-3.84,4.34-1.51.73-3.13,1.11-5.11,1.22-3.35.15-6.21-.53-8.82-1.28-2.63-.79-5.23-1.88-7.71-3.24-1.46-.81-2.54-1.48-3.52-2.18-.1-.07-.2-.14-.3-.21-.19-.12-.36-.24-.55-.4l-.91-.8c-.09-.08-.17-.16-.26-.24-.21-.19-.43-.38-.6-.57l-.72-.91c-1.6-2.07-2.67-4.5-3.37-7.65-.6-2.83-.68-5.55-.69-7.61,0-4.6,2.25-29.12,3.21-36.69.13-1.02-.52-1.99-1.58-2.36l-.9-.32-45.12-13.14-2.59-.21c-2.15-.18-4.1,1.06-4.65,2.94-1.61,5.57-4.68,13.97-6.24,15.26-1.98,1.57-4.28,2.73-6.83,3.46-4.84,1.4-10.49.84-15.11-1.51-.78-.34-1.44-.73-2.07-1.1-.33-.19-.66-.39-1-.57-.26-.17-.52-.34-.79-.51-.7-.45-1.42-.91-2.1-1.44-2.09-1.53-3.77-3.1-5.13-4.78-1.51-1.86-2.69-4-3.4-6.18-.48-1.44-.9-8.83-1.13-15.27-.1-2.77-2.47-4.99-5.52-5.17l-44-1.17-1.39.13c-3.97.38-6.98,3.39-7.01,7.01v1.43c-.05,5.11-.1,10.9-.2,11.59-.08.38-.15.76-.21,1.13-.15.85-.3,1.73-.64,2.6-.71,2.5-2.17,4.97-4.11,6.97-1.9,1.96-4.42,3.52-7.29,4.49-2.47.85-5.16,1.32-8.22,1.44-4.25.17-10.46-.24-16.01-3.19-2.56-1.36-4.79-3.17-6.44-5.23-1.38-1.7-4.44-13.08-5.69-17.89-.28-1.08-1.01-1.99-2.04-2.56-1.04-.58-2.27-.75-3.46-.49l-57.88,14.93"/>
  <path class="cls-1" d="M528.88,738.68l.11-11.72,14.43-43.1h0l38.76-184.52,6.34-88.21c.29-4.01-2.9-5.2-6.58-6.58-.65-.24-1.33-.5-2.01-.77l-2.02-.82-157.85-74.53-.05-.02-173.3,10.21"/>
  <path class="cls-1" d="M524.83,738.59l.14-11.72,16.94-43.41h0l37.73-183.67,1.74-32.39c.23-4.34-3.31-8.13-8.05-8.63l-166.97-38.5h-.03s-153.62,3.88-153.62,3.88h-.05s-56.7,34.59-56.7,34.59l-30.57-13.03-31.84-49.64-21.07-26.27-58.94-53.6"/>
  <path class="cls-1" d="M520.77,738.68l.16-11.72,19.44-43.94h0l24.61-126.57c.35-1.41-.11-3.01-1.27-4.52-1.57-2.03-4.2-3.57-6.56-3.84l-358.16-41.38-.74-.21-64.11-29.57-30.56-66.56-22.89-24.87-48.01-62.49"/>
  <path class="cls-1" d="M516.72,738.68l.19-11.72,21.97-44.3h0l2.88-28.28c.26-1.12-.09-2.3-1.03-3.5-2.2-2.82-7.23-5.13-10.54-5.53l-237.59-31.88-139.85-48.07"/>
</svg>