<?xml version="1.0" encoding="UTF-8"?>
<svg id="Edge.Cuts" xmlns="http://www.w3.org/2000/svg" width="232.38mm" height="274.21mm" viewBox="0 0 658.72 777.28">
  <defs>
    <style>
      .cls-1 {
        fill: none;
        stroke: #231f20;
        stroke-miterlimit: 10;
        stroke-width: .25px;
      }
    </style>
  </defs>
  <path class="cls-1" d="M613.03,164.43c-16.95-4.51-36.4,3.66-37.94,17.18,0,0-44.87,150.79-44.87,150.79-3.49-1.84-10.15-11.5-12.46-14.68,9.03-86.08,14.74-134.59,18.16-163.62,2.56-44.84,21.43-89.93-26.14-100.42-28.57-3.05-37.43,18.61-37.52,18.83-11.25,74.75-30.68,196.91-36.92,208.64-36.38-.12,2.01-251.17-38.4-260.72-24.75-11.58-47.55-1.5-54.99,15.84-1.35,4.98-4.67,226.94-6.86,242.36-27.26-.38-26.8-61.34-40.82-110.83-6.62-30.67-11.74-54.83-15.05-66.4-6.79-27.26-11.3-27.48-35.54-30.4-22.93-4.96-33.1,25.18-32.49,33.59.97,65.23,17.98,198.77,29.64,263.42-1.98-.9-34.25,94.17-57.05,64.4h0c-21-24.68-88.7-142.91-149.04-123.55-26.68,9.75-25.93,37.27-25.58,39.66,3.2,23.01,55.82,83.2,67.27,106.28,3.26,7.52,33.58,95.02,34.46,96.6,22.95,41.37,165.36,142.98,149.36,223.67h300.93c-1.1-2.9-12.49-33.83-10.76-53.33,2.32-17.22,52.82-198.47,53.4-200.59-3.28-79.21,21.65-243.53,38.1-321.61.05-.29,5.63-28.98-28.89-35.09Z"/>
  <path class="cls-1" d="M635.03,189.73c-2.35-3.09-10.52-3.18-13.98-4.04l2.64-10.64c7.38,3.99,10.3,9.82,11.34,14.68Z"/>
  <path class="cls-1" d="M31.98,349.83l.15-.08,10.46,16.06c-2.65,2.57-4.3,6.07-4.47,9.73-4.3-6.73-18.04-19.04-6.13-25.71Z"/>
  <path class="cls-1" d="M27.8,321.39l13.13,17.05-6.76,3.79-10.49-16.1c1.16-1.66,2.52-3.26,4.12-4.74Z"/>
  <path class="cls-1" d="M61.44,326.94l-5.4,3.02-14.79-15.47c1.85-.43,3.72-.71,5.58-.84l14.61,13.28Z"/>
  <path class="cls-1" d="M55.6,313.96c6.45.9,12.73,3.14,18.39,5.94l-7.34,4.11-11.05-10.05Z"/>
  <path class="cls-1" d="M110.54,371.59c5.37,6.72,23.56,28.7,27.26,36l-10.24,5.75c-4.89-11.72-22.92-32.11-31.43-41.48l9.2-5.02,5.22,4.75Z"/>
  <polygon class="cls-1" points="159.08 440.79 146.22 448.1 130.18 418.24 140.8 412.28 159.08 440.79"/>
  <path class="cls-1" d="M145.88,409.43l9.43-5.29c8.6,11.5,15.86,21.89,19.76,27.56l-10.92,6.21-18.27-28.48Z"/>
  <path class="cls-1" d="M163.59,447.81l33.08,14.1c2.34-.58,60.66-39.56,62.62-35.15l-9.09,24.54c-4.95-.18-14.86-3.25-19.2.03-1.71.37-38.9,26.15-39.93,22.75,0,0-37.37-14.21-37.37-14.21-2.27-.54-3.68-5.26-4.83-6.87l13.24-7.53,1.5,2.34Z"/>
  <path class="cls-1" d="M275.52,375.38l21.65-1.03,2.31,22.46-6.1,23.66-25.7.65,7.71-20.8c.44-.33,0-24.52.14-24.94Z"/>
  <polygon class="cls-1" points="249.51 371.24 245.05 341.77 269.52 340.29 269.54 370.24 249.51 371.24"/>
  <polygon class="cls-1" points="275.49 339.93 293.52 338.84 296.61 368.95 275.52 369.95 275.49 339.93"/>
  <polygon class="cls-1" points="275.48 320.66 263.08 276.02 279.12 271.89 290.94 313.72 292.97 333.45 275.49 334.5 275.48 320.66"/>
  <path class="cls-1" d="M219.34,105.01c.05-.59.47-1.72,1.01-4.33h0l11.86-2.56,1.1,17.36-13.12,2.83-.86-13.3Z"/>
  <path class="cls-1" d="M44.38,373.86c.3-1.1.8-2.12,1.46-3.05l12.53,19.23c-1.1,2.22-1.71,4.62-1.8,7.06-2.45-4.91-14.75-17.08-12.19-23.25Z"/>
  <polygon class="cls-1" points="72.23 355.17 86.94 370.54 77.07 375.93 64.4 359.47 72.23 355.17"/>
  <polygon class="cls-1" points="60.97 355.02 49.44 340.04 54.86 337 68.26 351.01 60.97 355.02"/>
  <path class="cls-1" d="M95.08,379.04c6.18,7.44,24.27,28.14,27.37,37.17l-10.16,5.71-5.87-12.78c-1.79-2.04-25.46-27.28-25.92-28.75l10.43-5.69,4.16,4.34Z"/>
  <path class="cls-1" d="M146.19,460.44c.91,5.19,38.58,16.25,42.55,18.65,8.79,5.46,41.04-24.18,48.51-23.9,0,0,11,1.35,11,1.35l-18.96,51.16-29.34-3.39c-.24.05-62.97-29.06-63.22-29.12l-5.57-12.13,12.59-7.16,2.44,4.54Z"/>
  <path class="cls-1" d="M303.14,374.06l27.42-1.31,1.42,31.99-3.11,14.83-29.31.74c6.53-24.05,6.58-21.44,3.58-46.25Z"/>
  <path class="cls-1" d="M296.85,312.79l-11.98-42.39c.55.02,13.17-3.82,13.36-3.03.18.1.5.33.61.77,4.31,16.58,5.69,18.29,6.21,18.92,5.34,6.51,13.31,9.33,22.14,9.61l1.53,34.62-29.79,1.8-2.08-20.29Z"/>
  <path class="cls-1" d="M268.73,213.31l-.71-7.5c26.43-5.84,17.09-6.02,24.68,20.86-3.36-1.65-15.77,2.83-19.24,3.38l-4.73-16.74Z"/>
  <path class="cls-1" d="M78.51,387.28l22.73,24.7,5.89,12.83-10.09,5.67-5.63-14.11-24.58-23.98-1.57-2.42c1.91-2.83,7.16-5.1,10.1-6.78l3.15,4.1Z"/>
  <path class="cls-1" d="M336.52,372.47l22.77-1.09-8.69,47.64-15.62.4,2.93-13.97c.21-.37-1.45-32.6-1.38-32.98Z"/>
  <path class="cls-1" d="M94.36,439.67l12.58,31.53c-1.43,1.62-2.5,3.44-3.19,5.37-1.32-6.95-15.85-30.22-9.38-36.91Z"/>
  <path class="cls-1" d="M172.17,548.99l39.82,5.41-9.35,25.24-58.84-20.14-9.14-10.75c-.64-4.59-21.72-49.14-16.69-52.33l54.2,52.58Z"/>
  <path class="cls-1" d="M374.55,260.3l19.03.5c.35,11.56,3.86,56.15-.25,66.59l-20.18,1.22c3.48-6.99,1.23-59.78,1.39-68.31Z"/>
  <path class="cls-1" d="M246.98,600.61c-2.08,8.6-6.89,26.48-9.71,34.75-8.29-3.59-31.91-19.8-39.7-25.07l8.71-23.61,40.71,13.94Z"/>
  <path class="cls-1" d="M399.57,260.96c14.38-1.82-4.84,21.2,22.13,34.25l-4.62,30.75-17.65,1.07,2.37-14.43c.15-.16-2.28-51.42-2.24-51.64Z"/>
  <polygon class="cls-1" points="377.81 627.57 401.57 630.76 397.27 653.84 382.48 656.6 373.49 656.33 377.81 627.57"/>
  <polygon class="cls-1" points="373.57 184.36 390.22 184.87 391.84 221.33 374.04 221.05 373.57 184.36"/>
  <path class="cls-1" d="M368.07,220.95c-4.5.22-11.64-1.05-15.77.95,1.13-12.01-1.34-35.81,1.96-38.11.19-.05,13.13.42,13.33.39l.48,36.77Z"/>
  <path class="cls-1" d="M396.21,185.05c2.57.51,9.42-1.2,9.67,2.8,0,.37.42,16.01.96,34.21-2.02-.85-6.81-.5-9.01-.63l-1.61-36.38Z"/>
  <path class="cls-1" d="M407.48,631.55l22.46,3.01-3.35,19.66c-12.08,4.35-11.12,4.25-23.87,2.85l4.75-25.53Z"/>
  <path class="cls-1" d="M451.43,382.24l20.23,7.38-7.03,41.27-18.99-4.38c2.26-8.79,4.86-34.92,5.79-44.27Z"/>
  <path class="cls-1" d="M471.77,284.77l.69-4.78,12.32,3.59c-2.19,13.95-3.52,55.5-6.82,69.06l-22.28-10.52c-1.18-10.35,12.81-47.28,16.09-57.35Z"/>
  <polygon class="cls-1" points="435.85 635.36 458.32 638.37 455.35 653.54 441.11 656.6 432.85 655.92 435.85 635.36"/>
  <path class="cls-1" d="M489.77,291.38l.8-6.1c.4.14,13.07,3.77,13.44,3.94-.49,21.31-12.05,50.33,10.87,60.36l-3.68,18.77-27.66-13.06c2.69-9.6,5.35-53.23,6.22-63.91Z"/>
  <path class="cls-1" d="M460.68,657.27l3.55-18.1,23.83,3.2-3.85,14.23h-12.15s-12.87,1.29-11.38.67Z"/>
  <path class="cls-1" d="M521.7,352.29c10.25,3.27,21.01,1.62,23.29-10.75,1.2-2.72,7.28.83,9.26,1.31-2.65,9.15-9.01,31.72-10.52,40.85l-26.97-12.73,3.74-19.08c.4.13.8.28,1.2.4Z"/>
  <path class="cls-1" d="M530.9,642.63l-7.58-1.02,8.3-43.82c4.36,1.22,16.69.21,18.5,5.77,0,0-7.58,44.78-7.58,44.78-2.95-3.07-8.04-5.29-11.63-5.72Z"/>
  <polygon class="cls-1" points="493.76 644.86 516.39 646.16 511.41 657.01 500.13 658.63 492.27 656.6 493.76 644.86"/>
  <polygon class="cls-1" points="495.12 637.83 504.53 594.12 525.7 596.99 517.4 640.82 495.12 637.83"/>
  <path class="cls-1" d="M545.48,594.2l-12.85-1.75,8.2-43.3c3.73,1.03,18.29.41,20.53,4.51.64.82.92,1.64.75,2.35l-8.28,42.57c-2.1-2.21-5.43-3.99-8.35-4.38Z"/>
  <path class="cls-1" d="M580.79,459.07c-3.61-3.53-16.96-4.83-21.69-6.4l5.52-29.13,9.99,3.64c2.24.01,4.41.83,5.91,2.38,4.27,2.73-.23,25.48.28,29.5Z"/>
  <path class="cls-1" d="M572.82,461.43c3.21.22,5.84,2.69,5.65,5.69,0,0-1.42,26.5-1.42,26.5-5.85-3.88-17.96-4.19-24.73-5.23l5.75-30.37,14.75,3.4Z"/>
  <path class="cls-1" d="M565.52,495.49c2.58.5,10.22,1.73,9.5,5.23,0,0-9.82,48.66-9.82,48.66-4.05-5.1-17.73-4.44-23.36-5.57l9.48-50.06,14.2,1.74Z"/>
  <path class="cls-1" d="M585.62,410.81l-1.06,14.78c-4.18-3.92-13.78-4.88-18.92-7.51l3.12-16.45,7.95,3.75c2.55,1.28,9.99,2.97,8.91,5.43Z"/>
  <polygon class="cls-1" points="559.97 416.01 544.11 410.22 548.06 391.86 563.2 399 559.97 416.01"/>
  <polygon class="cls-1" points="558.94 421.47 553.29 451.33 536.11 447.37 542.94 415.64 558.94 421.47"/>
  <polygon class="cls-1" points="552.27 456.69 546.4 487.67 527.93 485.4 534.97 452.7 552.27 456.69"/>
  <polygon class="cls-1" points="545.39 493.02 535.91 543.12 516 540.82 526.78 490.73 545.39 493.02"/>
  <polygon class="cls-1" points="534.89 548.47 526.71 591.65 505.68 588.8 514.86 546.15 534.89 548.47"/>
  <path class="cls-1" d="M590.36,382.84l-1.88,21.71c-5.11-2.83-13.43-5.67-18.67-8.53,1.47-10,7.26-33.55,9.85-43.55,2.75,1.09,12.49,4.39,14.64,6.31l-3.94,24.06Z"/>
  <path class="cls-1" d="M567.05,378.65l-2.79,14.74-15-7.08c1.62-9.57,7.78-31.83,10.58-41.35l14.24,5.39-7.02,28.3Z"/>
  <polygon class="cls-1" points="542.54 389.25 538.47 408.16 511.41 398.29 515.67 376.56 542.54 389.25"/>
  <polygon class="cls-1" points="537.3 413.58 530.32 446.04 503.28 439.8 510.34 403.74 537.3 413.58"/>
  <polygon class="cls-1" points="529.17 451.36 522 484.68 495.14 481.38 502.23 445.15 529.17 451.36"/>
  <polygon class="cls-1" points="520.85 490 510.07 540.13 484.21 537.15 494.09 486.72 520.85 490"/>
  <polygon class="cls-1" points="508.92 545.46 499.76 587.99 474.91 584.62 483.17 542.49 508.92 545.46"/>
  <polygon class="cls-1" points="498.62 593.32 489.21 637.04 465.28 633.83 473.87 589.96 498.62 593.32"/>
  <path class="cls-1" d="M522.3,646.96c5.12.84,14.4.87,16.64,6.63,0,0-1.65,14.53-1.65,14.53-1.18,5.27-17.02-3.04-17.02-3.04l2.02-18.11Z"/>
  <path class="cls-1" d="M596.3,353.44c-1.27-1.32-13.44-5.59-15.3-6.34l2.69-10.83c15.42,6.6,15.4,1.81,12.61,17.17Z"/>
  <polygon class="cls-1" points="575.4 344.98 561.32 339.65 564.32 328.95 578.09 334.15 575.4 344.98"/>
  <path class="cls-1" d="M555.75,337.54l-2.37-.9.07-.31-5.46-1.36-.09.24c-.54-.08-1.09-.1-1.61-.09,3.79-8.87.91-13.76,12.45-8.28l-3,10.69Z"/>
  <path class="cls-1" d="M505.76,284.01l-14.47-4.22,1.41-10.71c17.1,5.41,14.67-.97,13.06,14.93Z"/>
  <polygon class="cls-1" points="510.11 373.94 505.75 396.22 478.29 386.2 482.59 360.94 510.11 373.94"/>
  <polygon class="cls-1" points="504.68 401.67 497.47 438.46 470.45 432.23 477.35 391.7 504.68 401.67"/>
  <polygon class="cls-1" points="496.43 443.81 489.21 480.65 462.75 477.4 469.53 437.61 496.43 443.81"/>
  <polygon class="cls-1" points="488.17 485.99 478.28 536.46 453.19 533.56 461.84 482.76 488.17 485.99"/>
  <polygon class="cls-1" points="477.23 541.8 469 583.82 445.18 580.58 452.28 538.92 477.23 541.8"/>
  <polygon class="cls-1" points="467.96 589.15 459.36 633.03 436.76 630 444.27 585.94 467.96 589.15"/>
  <path class="cls-1" d="M601.44,330.51l-1.13,6.78c-1.29-1.44-13.41-5.55-15.29-6.37l2.33-9.4c4.46,1.7,15.16,2.07,14.1,8.99Z"/>
  <polygon class="cls-1" points="579.42 328.8 565.81 323.63 567.91 316.14 581.62 319.93 579.42 328.8"/>
  <path class="cls-1" d="M560.24,321.52c-2.83-.94-6.61-3.05-9.67-2.55,2.27-9.39,4.16-6.08,11.62-4.42l-1.95,6.97Z"/>
  <path class="cls-1" d="M508.52,267.57s-15.09-3.9-15.11-3.91l1.45-11.02c16.82,5.12,15.56-.89,13.66,14.93Z"/>
  <polygon class="cls-1" points="487.59 262.15 475.48 259.01 477.02 248.27 489.03 251.21 487.59 262.15"/>
  <path class="cls-1" d="M469.67,257.51c-3.01-.65-8.69-2.74-11.75-2.12,3.37-12.49-.18-12,13.29-8.54l-1.54,10.66Z"/>
  <path class="cls-1" d="M457.58,261.94c.94-3.14,9.2.95,11.31,1l-1.43,9.91c-3.11-.89-8.81-2.9-12.06-2.25.87-3.33,1.63-6.4,2.18-8.65Z"/>
  <polygon class="cls-1" points="474.7 264.44 486.88 267.58 485.49 278.11 473.24 274.53 474.7 264.44"/>
  <polygon class="cls-1" points="476.99 358.3 472.6 384.12 452.02 376.62 455.06 347.95 476.99 358.3"/>
  <polygon class="cls-1" points="463.71 436.27 456.83 476.67 436.76 474.21 444.64 431.87 463.71 436.27"/>
  <polygon class="cls-1" points="455.92 482.03 447.26 532.88 426.29 530.45 435.77 479.56 455.92 482.03"/>
  <polygon class="cls-1" points="446.35 538.24 439.27 579.78 417.66 576.84 425.3 535.8 446.35 538.24"/>
  <polygon class="cls-1" points="438.36 585.13 430.85 629.21 408.47 626.2 416.67 582.19 438.36 585.13"/>
  <path class="cls-1" d="M606.85,307.05l-2.62,15.17c-3.2-3.43-11.27-4.56-15.57-5.98l3.84-15.49c2.83,1.39,15.44,1.66,14.34,6.31Z"/>
  <polygon class="cls-1" points="582.93 314.64 569.38 310.88 573.53 296.09 586.73 299.33 582.93 314.64"/>
  <path class="cls-1" d="M563.66,309.3c-2.9-.68-7.35-2.49-10.33-2.07l4.07-12.68c1.05-3.69,8.1.02,10.36.12l-4.1,14.62Z"/>
  <path class="cls-1" d="M511.02,251.12c-.52-.36-14.38-3.64-15.45-3.92l4.72-35.9c1.87.84,14.7,1.33,14.82,3.5-.71,5.97-2.3,20.09-4.08,36.32Z"/>
  <polygon class="cls-1" points="489.74 245.77 477.8 242.85 482.78 208.29 494.4 210.29 489.74 245.77"/>
  <path class="cls-1" d="M471.98,241.42c-2.51-.43-9.58-2.94-12.06-2.13,2.24-9.76,4.92-25.13,6.06-31.7.75-3.61,8.51-.24,10.92-.32l-4.92,34.14Z"/>
  <path class="cls-1" d="M427.4,297.46c17.73,4.27,25.03-6.83,28.08-20.76,1.55-2.42,9.02,1.39,11.2,1.61-1.43,12.81-17.78,48.07-16.71,61.12l-26.96-12.73,4.39-29.24Z"/>
  <polygon class="cls-1" points="422.15 332.41 449.35 345.25 446.25 374.51 417.41 363.98 422.15 332.41"/>
  <path class="cls-1" d="M416.57,369.52l29.08,10.61c-.95,9.29-3.58,36.36-5.83,45.04l-30.56-7.05,7.3-48.6Z"/>
  <polygon class="cls-1" points="408.46 423.53 438.83 430.53 430.84 473.48 401.5 469.88 408.46 423.53"/>
  <polygon class="cls-1" points="429.84 478.83 420.36 529.77 392.98 526.6 400.69 475.25 429.84 478.83"/>
  <polygon class="cls-1" points="419.37 535.12 411.75 576.04 386.07 572.56 392.17 531.98 419.37 535.12"/>
  <polygon class="cls-1" points="410.75 581.39 402.56 625.41 378.61 622.2 385.27 577.93 410.75 581.39"/>
  <path class="cls-1" d="M610.19,293.66l-1.02,6.18c-2.08-1.76-12.7-3.57-15.35-4.42l2.17-8.75c3.57,1.68,14.98,1.22,14.19,6.99Z"/>
  <polygon class="cls-1" points="588.05 294 575.01 290.82 577.47 282.04 590.23 285.23 588.05 294"/>
  <path class="cls-1" d="M569.24,289.41c-2.6-.49-8.31-2.54-10.92-1.84,2.97-11.21,2.95-9.6,13.39-6.96l-2.47,8.81Z"/>
  <path class="cls-1" d="M517.76,198.27c-.31,2.66-.72,6.21-1.19,10.43.09-.21-15.09-2.67-15.57-2.79l1.84-14.01c3.14,1.28,15.94.53,14.92,6.38Z"/>
  <polygon class="cls-1" points="495.11 204.89 483.55 202.91 485.59 188.75 496.96 190.82 495.11 204.89"/>
  <path class="cls-1" d="M477.67,201.9c-3.08-.37-8.36-1.94-11.4-1.23,3.72-15.7-2.09-15.88,13.45-12.98l-2.05,14.21Z"/>
  <path class="cls-1" d="M403.52,179.87l-7.54-.23-1.03-23.3c2.71.56,10.56-1.36,10.73,2.66.27,6.53.64,15.81.83,21.53-.92-.36-1.92-.6-2.98-.66Z"/>
  <polygon class="cls-1" points="389.98 179.46 373.49 178.95 373.19 155.77 388.95 156.18 389.98 179.46"/>
  <path class="cls-1" d="M367.52,178.77c-1.73.06-13.89-.74-15.29-.1,1.9-23.22-6.11-24.4,14.99-23.05l.3,23.15Z"/>
  <path class="cls-1" d="M352.9,229.9c.31-5.99,11.33-2.95,15.24-3.52l.15,11.25c-3.81.31-12.05-.77-15.52.83.05-3.22.1-6.16.14-8.56Z"/>
  <polygon class="cls-1" points="374.11 226.47 392.08 226.76 392.56 237.57 374.26 237.61 374.11 226.47"/>
  <path class="cls-1" d="M398.06,226.85c10.65-.73,7.86,2.07,8.44,11.02-1.46-.56-6.38-.25-7.97-.31l-.47-10.71Z"/>
  <path class="cls-1" d="M402.86,242.97c5.32-.92,2.26,7.95,3.29,13.32-1.67-.81-4.98-.67-6.82-.75l-.56-12.56h4.08Z"/>
  <polygon class="cls-1" points="416.27 331.44 411.45 363.47 393.31 364.34 398.54 332.51 416.27 331.44"/>
  <polygon class="cls-1" points="410.63 368.94 403.31 417.69 384.47 418.17 392.42 369.81 410.63 368.94"/>
  <polygon class="cls-1" points="402.49 423.14 395.58 469.15 376.49 466.81 383.58 423.61 402.49 423.14"/>
  <polygon class="cls-1" points="394.77 474.52 387.05 525.92 367.16 523.62 375.61 472.17 394.77 474.52"/>
  <polygon class="cls-1" points="386.24 531.29 380.16 571.75 359.71 568.98 366.28 528.98 386.24 531.29"/>
  <polygon class="cls-1" points="379.36 577.12 372.7 621.4 351.57 618.57 358.83 574.34 379.36 577.12"/>
  <path class="cls-1" d="M371.9,626.78l-4.02,26.79-12.19.67c.68-.8-10.38-.73-9.73-1.5l4.73-28.8,21.21,2.85Z"/>
  <path class="cls-1" d="M339.83,653.76c-8.53,2.52-19.01,4.47-26.37,2.03,0,0,6.56-35.97,6.56-35.97l24.75,3.32-4.94,30.62Z"/>
  <polygon class="cls-1" points="307.2 656.94 296.61 656.94 285.72 654.65 293.75 616.29 314.12 619.02 307.2 656.94"/>
  <path class="cls-1" d="M279.73,654.23c-5.98-2.37-25.14-12.71-31.12-15.89l-.93-16.64,4.94-19.16,35.4,12.12-8.29,39.57Z"/>
  <polygon class="cls-1" points="190.63 607.44 190.63 607.44 150.75 567.66 200.68 584.76 190.63 607.44"/>
  <path class="cls-1" d="M613.68,279.65l-1.03,6.42c-3.32-2.63-11.35-3.32-15.35-4.68l2.17-8.75c3.41,1.47,14.96,1.82,14.2,7.01Z"/>
  <polygon class="cls-1" points="591.54 279.94 578.93 276.81 581.39 268.04 593.72 271.17 591.54 279.94"/>
  <path class="cls-1" d="M573.17,275.37c-3.47-.63-7.86-2.62-11.41-2.09,3.06-11.9,3.21-9.02,13.87-6.7l-2.47,8.8Z"/>
  <path class="cls-1" d="M519.44,190.22c-2.07-1.83-13.23-3.05-15.89-3.73l1.84-14.02c18.8,4.74,16.1-2.44,14.05,17.75Z"/>
  <polygon class="cls-1" points="497.67 185.42 486.37 183.37 488.41 169.21 499.52 171.34 497.67 185.42"/>
  <path class="cls-1" d="M480.5,182.3c-3.26-.57-8.43-1.67-11.74-1.49,3.46-14.23-2.24-16.15,13.79-12.73l-2.05,14.22Z"/>
  <path class="cls-1" d="M402.79,151.07c-1.24.04-6.74-.13-8.09-.16l-1.03-23.28c3.84.22,11.48-1.03,11.68,4.55.27,6.46.52,12.4.81,19.48-1.04-.38-2.17-.59-3.37-.59Z"/>
  <polygon class="cls-1" points="388.71 150.75 373.12 150.35 372.82 127.18 387.68 127.5 388.71 150.75"/>
  <path class="cls-1" d="M367.14,150.19c-2.74.13-12.92-.96-15.31.42,1.86-22.87-6.03-24.93,15.01-23.56l.3,23.14Z"/>
  <path class="cls-1" d="M353.32,254.25c-.48-15.43,1.67-10.31,15.04-11.21l.15,11.67c-3.87.06-11.78-1.03-15.21,1.11,0-.52.02-1.03.02-1.58Z"/>
  <polygon class="cls-1" points="374.33 243.03 392.8 242.99 393.35 255.38 374.48 254.88 374.33 243.03"/>
  <polygon class="cls-1" points="392.44 332.88 387.22 364.63 366.41 365.62 372.16 334.1 392.44 332.88"/>
  <polygon class="cls-1" points="386.33 370.1 378.41 418.32 356.69 418.87 365.41 371.1 386.33 370.1"/>
  <polygon class="cls-1" points="377.51 423.77 370.57 466.08 348.57 463.38 355.7 424.32 377.51 423.77"/>
  <polygon class="cls-1" points="369.68 471.44 361.23 522.94 338.19 520.27 347.59 468.73 369.68 471.44"/>
  <polygon class="cls-1" points="360.35 528.3 353.8 568.17 330.04 564.95 337.21 525.63 360.35 528.3"/>
  <polygon class="cls-1" points="352.92 573.53 345.66 617.78 321 614.47 329.06 570.29 352.92 573.53"/>
  <polygon class="cls-1" points="315.09 613.67 294.87 610.96 304.1 566.9 323.15 569.49 315.09 613.67"/>
  <polygon class="cls-1" points="289.15 609.25 253.99 597.21 263.22 561.35 298.18 566.1 289.15 609.25"/>
  <polygon class="cls-1" points="248.35 595.28 208.23 581.55 217.99 555.21 257.29 560.55 248.35 595.28"/>
  <path class="cls-1" d="M620.46,246.93l-4.15,25.51c-3.67-2.72-11.17-3.78-15.52-5.09l6.31-25.44c1.8,1.03,14.27,1.74,13.35,5.03Z"/>
  <polygon class="cls-1" points="595.03 265.88 582.86 262.78 589.87 237.8 601.32 240.53 595.03 265.88"/>
  <path class="cls-1" d="M577.11,261.32c-3.32-.69-8.09-2.44-11.51-2.25l7.12-22.93c1.54-3.53,8.64.09,11.36.28l-6.98,24.9Z"/>
  <path class="cls-1" d="M522.83,170.56c-3-1.05-13.48-2.79-16.73-3.49l4.65-35.39c1.64.26,13.19,2.28,14.52,2.36,4.22-.57-2.97,32.89-2.44,36.52Z"/>
  <polygon class="cls-1" points="500.23 165.94 489.18 163.81 494.21 128.89 504.86 130.69 500.23 165.94"/>
  <path class="cls-1" d="M483.32,162.69c-3.49-.62-8.71-1.89-12.24-1.41,2.26-13.66,3.74-22.63,5.62-34.06.21-2.25,9.91.76,11.63.68l-5.01,34.78Z"/>
  <path class="cls-1" d="M400.28,122.34c-.13.02-6.46-.13-6.85-.13l-1.03-23.21c3.3.48,11.93-2.28,12.42,2.68.26,6.31.67,15.59.94,21.98-1.61-.83-3.48-1.32-5.48-1.32Z"/>
  <polygon class="cls-1" points="387.44 122.07 372.75 121.75 372.46 99.57 386.43 99.17 387.44 122.07"/>
  <path class="cls-1" d="M366.77,121.62c-3.42.16-12.16-.98-15.24.6,1.91-22.66-5.39-22.5,14.96-22.48l.28,21.88Z"/>
  <path class="cls-1" d="M278.61,150c.9,4.12,1.77,8.11,2.61,11.98-4.25-.97-12.85,1.64-17.18,2.13l-2.31-24.32c14.97-3.15,13.81-5.63,16.88,10.22Z"/>
  <path class="cls-1" d="M333.15,296.42c17.62-2.5,21.94-13.8,20.73-32.24.15-6.44,10.79-3.67,14.69-4.03-.16,9.47,2.13,60.89-1.54,68.84l-32.35,1.95-1.53-34.51Z"/>
  <polygon class="cls-1" points="366.03 334.47 360.3 365.91 336.28 367.06 334.92 336.35 366.03 334.47"/>
  <polygon class="cls-1" points="349.61 424.47 342.65 462.65 326.35 460.65 333.84 424.87 349.61 424.47"/>
  <polygon class="cls-1" points="341.67 468 332.26 519.59 314.44 517.53 325.23 465.99 341.67 468"/>
  <polygon class="cls-1" points="331.28 524.94 324.13 564.14 305.21 561.58 313.32 522.87 331.28 524.94"/>
  <polygon class="cls-1" points="299.3 560.77 264.59 556.06 274.3 518.36 307.38 522.18 299.3 560.77"/>
  <polygon class="cls-1" points="258.66 555.25 219.92 549.99 233.4 513.63 268.34 517.67 258.66 555.25"/>
  <polygon class="cls-1" points="213.93 549.18 175.12 543.91 121.36 491.43 113.95 472.85 126.04 465.98 132.07 479.12 197.19 509.16 198.68 509.62 227.36 512.94 213.93 549.18"/>
  <polygon class="cls-1" points="111.87 467.63 99.12 435.68 109.46 429.87 123.71 460.9 111.87 467.63"/>
  <path class="cls-1" d="M86.22,419.24l5.79,14.53c-1.99,1.76-3.49,3.89-4.43,6.21-2.57-5.77-27.31-37.19-24.96-43.75l23.59,23.01Z"/>
  <path class="cls-1" d="M624.84,227.39l-2.14,12.99c-1.97-1.26-11.93-3.04-14.29-3.77l3.66-14.76c2.98,1.21,13.46.37,12.76,5.53Z"/>
  <polygon class="cls-1" points="602.64 235.24 591.34 232.55 595.21 218.74 606.23 220.77 602.64 235.24"/>
  <path class="cls-1" d="M585.56,231.17c-3.34-.73-8.87-2.48-12.28-1.81l4.3-14.09c2.92.67,8.84,1.89,11.78,2.38l-3.79,13.52Z"/>
  <path class="cls-1" d="M529.9,117.51l-1.38,11.87c-2.99-1.13-13.78-2.33-17.06-3.09l1.87-14.22c2.18,1.11,17.62,1.1,16.58,5.44Z"/>
  <polygon class="cls-1" points="505.56 125.3 494.98 123.51 497.05 109.16 507.44 111.02 505.56 125.3"/>
  <path class="cls-1" d="M489.1,122.52c-3.37-.44-8.91-1.85-12.27-1.54,3.75-16.47-2.41-15.81,14.35-12.87l-2.08,14.42Z"/>
  <path class="cls-1" d="M405.36,91.99c.03.7.06,1.42.09,2.13-2.7-1.48-10.27-.45-13.29-.54l-1.05-23.71c19.06-.79,11.95-3.47,14.25,22.12Z"/>
  <polygon class="cls-1" points="386.19 93.76 372.39 94.17 372.09 70.69 385.14 70.13 386.19 93.76"/>
  <path class="cls-1" d="M366.42,94.35c-3.2.3-11.72-.13-14.68.83,2.39-21.51-4.76-24.33,14.38-24.23l.3,23.4Z"/>
  <path class="cls-1" d="M272.65,117.47c1.05,4.86,2.17,10.06,3.19,14.77-2.93-1.18-11.61,1.64-14.62,2.09l-1.8-18.91c3.97-.71,11.84-3.95,13.23,2.05Z"/>
  <polygon class="cls-1" points="255.34 135.6 240.78 138.77 239.57 119.7 253.54 116.69 255.34 135.6"/>
  <polygon class="cls-1" points="255.86 141.06 258.15 165.16 242.63 167.93 241.13 144.27 255.86 141.06"/>
  <polygon class="cls-1" points="258.67 170.59 259.91 183.68 243.8 186.42 242.97 173.4 258.67 170.59"/>
  <path class="cls-1" d="M264.57,169.54c17.74-2.22,15.91-7.73,19.71,11.01-3.15-1.31-15.11,1.82-18.46,2.12l-1.25-13.13Z"/>
  <path class="cls-1" d="M280.76,185.64c6.02-.56,4.74,7.88,6.3,11.64-2.79-1.26-16.58,2.74-19.56,3.1l-1.17-12.28,14.42-2.46Z"/>
  <path class="cls-1" d="M289.19,231.72c6.45,0,4.71,10.84,6.75,14.6-5.19-1.14-11.64,3.38-16.76,3.94l-4.23-14.96,14.24-3.58Z"/>
  <path class="cls-1" d="M286.43,254.03c11.26-5.13,9.34-1.55,11.94,7.81-1.81-.53-13.04,2.97-14.98,3.32l-2.72-9.64,5.77-1.48Z"/>
  <polygon class="cls-1" points="328.96 336.71 330.32 367.34 302.58 368.66 299.48 338.48 328.96 336.71"/>
  <polygon class="cls-1" points="327.73 425.03 320.42 459.92 290.3 456.23 298.15 425.78 327.73 425.03"/>
  <polygon class="cls-1" points="319.3 465.26 308.5 516.84 275.67 513.05 288.94 461.53 319.3 465.26"/>
  <polygon class="cls-1" points="269.71 512.36 235.34 508.39 254.28 457.27 282.99 460.8 269.71 512.36"/>
  <polygon class="cls-1" points="128.84 457.98 114.61 426.99 125.08 421.11 141.13 451 128.84 457.98"/>
  <path class="cls-1" d="M71.93,378.73c-2.92,1.64-7.66,3.85-9.9,6.28l-11.63-17.85,8.87-4.87,12.66,16.45Z"/>
  <path class="cls-1" d="M631.04,194.88l-4.05,25.08c-2.58-1.95-10.49-2.64-13.6-3.39l6.35-25.57c1.97.84,12.11.5,11.3,3.89Z"/>
  <polygon class="cls-1" points="607.54 215.48 596.68 213.48 603.74 188.3 613.86 190 607.54 215.48"/>
  <path class="cls-1" d="M590.82,212.39c-3.43-.51-9.37-1.95-12.78-2.51l6.52-21.55c1.95-4.83,9.53-1.05,13.3-1.03l-7.03,25.09Z"/>
  <path class="cls-1" d="M531.29,110.19c-1.37-1.02-15.39-3.05-17.26-3.51l1.87-14.21c17.44,3.83,15.74-.93,15.39,17.72Z"/>
  <polygon class="cls-1" points="508.15 105.62 497.83 103.77 499.89 89.41 510.02 91.34 508.15 105.62"/>
  <path class="cls-1" d="M491.95,102.72c-3.51-.57-9.22-1.86-12.77-1.68,3.21-14.24-1.92-16.67,14.85-12.75l-2.08,14.43Z"/>
  <path class="cls-1" d="M404.84,64.26c-3.61-.63-10.34.2-13.97.19l-.98-22.01c2.2.61,12.41-1.73,12.63,2.14,0,0,2.32,19.68,2.32,19.68Z"/>
  <polygon class="cls-1" points="384.9 64.71 372.01 65.27 371.72 42.44 383.91 42.44 384.9 64.71"/>
  <path class="cls-1" d="M366.04,65.53c-3.93.31-10.25-.02-13.9,1.51l1.44-20.01c.26-5.69,8.26-4.54,12.16-4.59l.3,23.09Z"/>
  <path class="cls-1" d="M265.32,108.58l-6.43,1.38-1.64-17.26c3.53-1.14,8.73-1.6,10.02,2.67,0,0,4.4,13.65,4.4,13.65-2-.71-4.19-.87-6.35-.44Z"/>
  <polygon class="cls-1" points="253.02 111.23 239.22 114.21 238.12 96.84 251.38 93.97 253.02 111.23"/>
  <polygon class="cls-1" points="233.67 120.97 234.88 140.06 221.8 142.9 220.56 123.8 233.67 120.97"/>
  <polygon class="cls-1" points="222.16 148.4 235.23 145.55 236.71 168.99 223.64 171.33 222.16 148.4"/>
  <polygon class="cls-1" points="237.06 174.45 237.88 187.43 224.83 189.66 224 176.79 237.06 174.45"/>
  <polygon class="cls-1" points="225.18 195.11 238.23 192.89 239.08 206.38 226.09 209.12 225.18 195.11"/>
  <polygon class="cls-1" points="244.15 191.88 260.43 189.1 261.62 201.62 244.99 205.13 244.15 191.88"/>
  <path class="cls-1" d="M262.14,207.06c-.33,4.91,4.17,19.62,5.56,24.44l-15.87,3.98-6.37-22.96-.12-1.9,16.81-3.56Z"/>
  <polygon class="cls-1" points="269.18 236.74 273.42 251.73 257.48 255.83 253.29 240.73 269.18 236.74"/>
  <polygon class="cls-1" points="251.73 257.3 232.98 262.11 230.6 246.42 247.53 242.18 251.73 257.3"/>
  <polygon class="cls-1" points="253.19 262.56 255.87 272.25 235.32 277.55 233.8 267.54 253.19 262.56"/>
  <polygon class="cls-1" points="258.94 261.08 274.91 256.99 277.63 266.63 261.62 270.76 258.94 261.08"/>
  <polygon class="cls-1" points="291.97 425.93 284.36 455.5 256.22 452.04 265.65 426.6 291.97 425.93"/>
  <polygon class="cls-1" points="92.14 367.71 77.42 352.32 84.85 348.23 100.97 362.89 92.14 367.71"/>
  <polygon class="cls-1" points="73.45 348.16 60.01 334.11 65.77 330.88 80.51 344.28 73.45 348.16"/>
  <path class="cls-1" d="M50.89,332.85l-4.88,2.74-13.57-17.63c.88-.52,1.82-1.01,2.81-1.45l15.64,16.35Z"/>
  <polygon class="cls-1" points="44.35 342.89 55.85 357.83 47.36 362.49 37.2 346.9 44.35 342.89"/>
  <path class="cls-1" d="M618.15,172.72l-2.97,11.98-9.96-1.67,3.45-12.29c3.07.35,6.71,1.06,9.49,1.99Z"/>
  <path class="cls-1" d="M589.27,173.8c3.36-2.26,7.83-3.38,13.32-3.42l-3.27,11.66c-4.83-.51-11.3-2.88-15.86-.51.56-1.83,2.05-5.21,5.8-7.73Z"/>
  <path class="cls-1" d="M534.52,89.76c0,.67,0,1.31,0,1.95-2.26-2.53-14.78-3.71-17.91-4.61l3.09-23.53c14.34,7.54,14.83,25.97,14.83,26.19Z"/>
  <path class="cls-1" d="M509.59,60.6c1.55.17,3,.43,4.37.78l-3.23,24.6-10.06-1.93,3.41-23.68c1.72-.04,3.56.02,5.52.23Z"/>
  <path class="cls-1" d="M497.95,61.07l-3.15,21.85c-4.82-.58-11.46-3.59-15.85-.49,1.35-9.8,2.34-16.12,18.99-21.36Z"/>
  <path class="cls-1" d="M403.85,37.92c-2.5-1.55-11.34-.7-14.2-.9l-.55-12.5c6.75,1.97,12.59,6.74,14.75,13.4Z"/>
  <path class="cls-1" d="M383.06,23.16l.61,13.86h-12.03l-.18-14.13c3.38-.31,7.45-.33,11.6.27Z"/>
  <path class="cls-1" d="M365.07,23.98c.13-.04.29-.07.43-.11l.17,13.15c-5.28-.18-12.82-.44-15.99,4.4.12-6.26,7.51-14.32,15.39-17.44Z"/>
  <path class="cls-1" d="M267.8,87.79c-3.18-1.87-7.44-1.59-11.07-.56l-.72-7.56c7.3,1.39,9.18,2.22,11.79,8.12Z"/>
  <path class="cls-1" d="M243.28,77.89c2.15.29,5.37.7,7.39.98l-.73.06.91,9.58-13.08,2.83-.85-13.36c1.95-.35,4.06-.39,6.35-.09Z"/>
  <path class="cls-1" d="M230.41,80.76c.22-.16.45-.3.68-.45l.78,12.3-10.44,2.26c1.59-5.02,4.32-10.69,8.98-14.11Z"/>
  <path class="cls-1" d="M226.45,214.61l12.98-2.75c.02.21.08,1.3.09,1.47,0,0,6.55,23.58,6.55,23.58l-16.28,4.09c-.82-5.34-3.4-21.22-3.33-26.39Z"/>
  <polygon class="cls-1" points="236.63 282.84 236.63 282.84 257.33 277.5 269.5 321.34 269.51 334.86 244.23 336.39 236.63 282.84"/>
  <path class="cls-1" d="M195.22,445.55c24.7-1.64,42.44-55.79,50.51-68.75l23.81-1.13c.44,25.08.74,22.36-8.23,45.62-.41,0-9.07.24-9.14.23,0,0-56.03,34.18-56.03,34.18l-28.33-12.07-.66-1.03,11.06-6.29c.67.9,7.13,9.25,17.01,9.25Z"/>
  <path class="cls-1" d="M151.93,399.65l-9.06,5.09c-6.06-10.01-23.48-32.79-32.28-40.77l7.68-4.19c11,11.67,23.46,26.21,33.66,39.87Z"/>
  <path class="cls-1" d="M106.02,346.93c2.15,2.2,4.82,4.95,8.33,8.66l-8.11,4.42-16.13-14.67,9.56-5.25c1.55,1.91,3.42,3.83,6.35,6.84Z"/>
  <path class="cls-1" d="M96.15,335.69l-10.38,5.7-14.78-13.44,7.27-4.08h0c9.03,4.84,14.38,8.12,17.89,11.81Z"/>
  <path class="cls-1" d="M17.2,347.41c0-1.59.23-8.4,3.29-15.51l8.59,13.19c-5.61,2.95-8.88,9.08-7.67,15.16-1.41-3.75-2.96-8.49-4.22-12.83Z"/>
</svg>