<?xml version="1.0" encoding="UTF-8"?>
<svg id="B.Mask" xmlns="http://www.w3.org/2000/svg" width="232.38mm" height="274.21mm" viewBox="0 0 658.72 777.28">
  <defs>
    <style>
      .cls-1 {
        fill: none;
        stroke: #231f20;
        stroke-miterlimit: 10;
        stroke-width: .25px;
      }
    </style>
  </defs>
  <path class="cls-1" d="M635.03,185.61c.17,1.3-43.76,202.2-43.76,202.2l-12.81,105.94-40.77,180.38h-251.97l-95.09-66.68-39.88-39.78-16.08-18.92-44.56-101.87s-72.01-90.68-73.06-94.18c-1.05-3.51-7.98-20.06,15.39-34.74,22.12-13.89,41.55,1.94,41.55,1.94l25.68,20.2,18.6,19.69,36.56,43.77s-.01-.01-.01-.02c.05.02.38.46.47.57l-.44-.52c.4.67,4.21,6.13,23.37,32.71,28.83,40.02,67.51-59.5,67.51-59.5l3.78-5.56-12.88-88.39-10.18-68.23s-6.24-115.49-5.02-119.74c1.23-4.26.48-14.98,20.35-17.2,19.86-2.21,26.02,10.12,26.02,10.12l31.04,180.34s2.8,10.14,6.2,18.92c2.62,6.76,14.32,8.81,19.57,9.39,1.61-.02,4.3-.03,8.54-.03,19.66.02,20.85-28.44,20.74-32.24-.12-3.81-4.24-212.32-4.21-222.76.04-10.44,6.19-17.52,27.89-18.71,21.69-1.19,26.28,15.21,26.28,15.21,0,0,2.28,221.5,2.3,226.52.02,5.03-7.05,20.22,18.25,32.48,25.3,12.26,31.07-20.21,31.07-20.21,0,0,21.08-178.77,23.48-194.27,2.4-15.5,9.86-25.52,32.5-22.08,22.64,3.44,23.06,31.35,23.06,31.35,0,0-24.77,173.38-29.02,198.57-4.26,25.19-14.64,49.87,11.82,60.26,26.45,10.38,27.68-9,27.68-9,0,0,37.88-160.62,39.09-164.22,1.22-3.6,15.13-7.53,31.13-4.97,16,2.55,19.65,11.97,19.82,13.26Z"/>
</svg>